<?xml version="1.0" ?><svg xmlns="http://www.w3.org/2000/svg" xmlns:xlink="http://www.w3.org/1999/xlink" version="1.1" viewBox="0 0 64 64" style="enable-background:new 0 0 64 64;" xml:space="preserve"><style type="text/css">
	.Drop_x0020_Shadow{fill:none;}
	.Round_x0020_Corners_x0020_2_x0020_pt{fill:#FFFFFF;stroke:#231F20;stroke-miterlimit:10;}
	.Live_x0020_Reflect_x0020_X{fill:none;}
	.Bevel_x0020_Soft{fill:url(#SVGID_1_);}
	.Dusk{fill:#FFFFFF;}
	.Foliage_GS{fill:#FFDD00;}
	.Pompadour_GS{fill-rule:evenodd;clip-rule:evenodd;fill:#44ADE2;}
	.st0{fill:#FFFFFF;}
</style><linearGradient id="SVGID_1_" gradientUnits="userSpaceOnUse" x1="-81" y1="-81" x2="-80.2929" y2="-80.2929"><stop offset="0" style="stop-color:#DEDFE3"/><stop offset="0.1783" style="stop-color:#DADBDF"/><stop offset="0.3611" style="stop-color:#CECFD3"/><stop offset="0.546" style="stop-color:#B9BCBF"/><stop offset="0.7324" style="stop-color:#9CA0A2"/><stop offset="0.9181" style="stop-color:#787D7E"/><stop offset="1" style="stop-color:#656B6C"/></linearGradient><g id="Grid"/><g id="Object"><g><path d="M51.7,22.3c-1.1-2-1.7-4.1-2-6.2c-0.8-4.8-3.2-8.4-6.9-9.6L43.9,3c-0.7-0.9-2.7-0.5-2.7-0.5l0,3.8c-2.1-0.2-4,0.5-5.7,1.8    c2.7,2.8,3.3,7.8,5.8,10.7c9.9,11.9,7.4,35.6-5.7,42.9C51.4,60.5,59.4,36,51.7,22.3z"/><path d="M45.3,37.7c0-7-2.2-13.2-5.7-17.7c-1.4-1.8-2.4-3.8-3-5.8c-1.3-4-4.3-7.7-8.5-8.2l0.5-3.7c-0.9-0.7-2.8,0-2.8,0L26.6,6    c-4.2,0.5-7,3.7-8.6,8.2c-0.7,2-1.7,4-3.1,5.8C4.5,32.7,9.1,59.2,25.4,61.9C37.5,63,45.1,51.2,45.3,37.7z M31.7,59.1    c-11.5,4.2-20.4-7.9-20.4-21.4c0-6.2,1.9-12.2,5.2-16.5c1.4-1.8,2.5-3.9,3.4-6.4c1.5-4.2,4.4-7.5,8.6-6.8c6,1.3,6.1,9.2,9.7,13.2    C46.9,31.9,44.3,54.2,31.7,59.1z"/><path d="M37.3,21.9c-3.5-3.8-3.6-12.2-9.8-12.9c0,0-0.3,0.1-0.3,0.1c-3.1-0.1-5.3,2.9-6.4,6.2c-0.9,2.6-2,4.8-3.5,6.7    c-3.2,4.1-5,9.8-5,15.8c0.1,11.6,6.2,21.1,15.2,21.3l-0.1,0C42.8,58.1,46.5,32.8,37.3,21.9z M29.2,52.7c-6,2.2-11-6.5-11-15    c0-4.7,1.2-8.9,3.7-12.2c1.3-1.6,2.3-3.3,3.2-5.2c0.8-1.4,1.3-3.8,2.2-5c0.3,0.3,0.6,1,0.9,1.9c1,3.1,2.5,5.9,4.5,8.4    c2.3,3,3.7,7.5,3.7,12.2C36.4,44.6,33.3,51.1,29.2,52.7z"/><path d="M27.8,49.9c-1.1,0-1.1,1.7,0,1.7C28.9,51.7,28.9,49.9,27.8,49.9z M27.5,50.8c-0.4,0-0.4-0.6,0-0.6    C27.9,50.2,27.9,50.8,27.5,50.8z"/><path d="M27.8,46.3c-1.1,0-1.1,1.7,0,1.7C28.9,48.1,28.9,46.4,27.8,46.3z M27.5,47.2c-0.4,0-0.4-0.6,0-0.6    C27.9,46.6,27.9,47.2,27.5,47.2z"/><path d="M27.8,42.8c-1.1,0-1.1,1.7,0,1.7C28.9,44.5,28.9,42.8,27.8,42.8z M27.5,43.6c-0.4,0-0.4-0.6,0-0.6    C27.9,43,27.9,43.6,27.5,43.6z"/><path d="M25.9,47.3c-1.1,0-1.1,1.7,0,1.7C27,49,27,47.3,25.9,47.3z M25.6,48.1c-0.4,0-0.4-0.6,0-0.6C26,47.5,26,48.1,25.6,48.1z"/><path d="M25.9,43.7c-1.1,0-1.1,1.7,0,1.7C27,45.4,27,43.7,25.9,43.7z M25.6,44.6c-0.4,0-0.4-0.6,0-0.6C26,43.9,26,44.6,25.6,44.6z    "/><path d="M25.9,40.1c-1.1,0-1.1,1.7,0,1.7C27,41.8,27,40.1,25.9,40.1z M25.6,41c-0.4,0-0.4-0.6,0-0.6C26,40.4,26,41,25.6,41z"/><path d="M22.4,44c0-1.1-1.7-1.1-1.7,0C20.6,45.1,22.4,45.1,22.4,44z M21.2,44c-0.4,0-0.4-0.6,0-0.6C21.6,43.4,21.6,44,21.2,44z"/><path d="M22.6,32.3c0,1.1,1.7,1.1,1.7,0C24.4,31.2,22.6,31.2,22.6,32.3z M23.2,31.7c0.4,0,0.4,0.6,0,0.6    C22.8,32.3,22.8,31.7,23.2,31.7z"/><path d="M22.6,28.7c1.1,0,1.1-1.7,0-1.7C21.5,27,21.5,28.7,22.6,28.7z M22.3,27.2c0.4,0,0.4,0.6,0,0.6    C21.9,27.8,21.9,27.2,22.3,27.2z"/><path d="M23.5,29.1c0,1.1,1.7,1.1,1.7,0C25.2,28,23.5,28,23.5,29.1z M24,29.1c-0.4,0-0.4-0.6,0-0.6C24.4,28.5,24.4,29.1,24,29.1z"/><path d="M23.5,26.9c1.1,0,1.1-1.7,0-1.7C22.4,25.2,22.4,26.9,23.5,26.9z M23.2,25.4c0.4,0,0.4,0.6,0,0.6    C22.8,26,22.8,25.4,23.2,25.4z"/><path d="M29.5,44.9c0,1.1,1.7,1.1,1.7,0C31.2,43.8,29.5,43.8,29.5,44.9z M30.1,44.9c-0.4,0-0.4-0.6,0-0.6    C30.5,44.3,30.5,44.9,30.1,44.9z"/><path d="M27.9,38.8c-1.1,0-1.1,1.7,0,1.7C29,40.5,29,38.8,27.9,38.8z M27.6,39.7c-0.4,0-0.4-0.6,0-0.6C28,39,27.9,39.7,27.6,39.7z    "/><path d="M27.8,35.6c-1.1,0-1.1,1.7,0,1.7C28.9,37.4,28.9,35.6,27.8,35.6z M27.5,36.5c-0.4,0-0.4-0.6,0-0.6    C27.9,35.9,27.9,36.5,27.5,36.5z"/><path d="M24.1,45.5c-1.1,0-1.1,1.7,0,1.7C25.3,47.3,25.3,45.5,24.1,45.5z M23.8,46.4c-0.4,0-0.4-0.6,0-0.6    C24.2,45.8,24.2,46.4,23.8,46.4z"/><path d="M23.3,42.8c0,1.1,1.7,1.1,1.7,0C25,41.7,23.3,41.7,23.3,42.8z M23.8,42.8c-0.4,0-0.4-0.6,0-0.6    C24.2,42.2,24.2,42.8,23.8,42.8z"/><path d="M24.1,38.4c-1.1,0-1.1,1.7,0,1.7C25.3,40.1,25.3,38.4,24.1,38.4z M23.8,39.2c-0.4,0-0.4-0.6,0-0.6    C24.2,38.6,24.2,39.2,23.8,39.2z"/><path d="M23.3,35.7c0,1.1,1.7,1.1,1.7,0C25,34.5,23.3,34.5,23.3,35.7z M23.8,35.7c-0.4,0-0.4-0.6,0-0.6    C24.2,35,24.2,35.7,23.8,35.7z"/><path d="M21.8,40.5c-1.1,0-1.1,1.7,0,1.7C22.9,42.3,22.9,40.5,21.8,40.5z M21.5,41.4c-0.4,0-0.4-0.6,0-0.6    C21.9,40.8,21.9,41.4,21.5,41.4z"/><path d="M21,39.4c0-1.1-1.7-1.1-1.7,0C19.2,40.5,21,40.5,21,39.4z M19.8,39.4c-0.4,0-0.4-0.6,0-0.6C20.2,38.8,20.2,39.4,19.8,39.4    z"/><path d="M21.8,37c-1.1,0-1.1,1.7,0,1.7C22.9,38.7,22.9,37,21.8,37z M21.5,37.8c-0.4,0-0.4-0.6,0-0.6    C21.9,37.2,21.9,37.8,21.5,37.8z"/><path d="M30.5,47.3c-1.1,0-1.1,1.7,0,1.7C31.7,49,31.7,47.3,30.5,47.3z M30.2,48.2c-0.4,0-0.4-0.6,0-0.6    C30.6,47.6,30.6,48.2,30.2,48.2z"/><path d="M30.6,42.7c0-1.1-1.7-1.1-1.7,0C28.9,43.8,30.6,43.8,30.6,42.7z M29.5,42.7c-0.4,0-0.4-0.6,0-0.6    C29.9,42.1,29.9,42.7,29.5,42.7z"/><path d="M20.7,34.3c1.1,0,1.1-1.7,0-1.7C19.6,32.6,19.6,34.3,20.7,34.3z M20.4,32.9c0.4,0,0.4,0.6,0,0.6    C20,33.5,20,32.9,20.4,32.9z"/><path d="M19.9,37c1.1,0,1.1-1.7,0-1.7C18.8,35.3,18.8,37,19.9,37z M19.6,35.5c0.4,0,0.4,0.6,0,0.6C19.2,36.2,19.2,35.5,19.6,35.5z    "/><path d="M21.8,31.5c1.1,0,1.1-1.7,0-1.7C20.7,29.8,20.7,31.5,21.8,31.5z M21.5,30.1c0.4,0,0.4,0.6,0,0.6    C21.1,30.7,21.1,30.1,21.5,30.1z"/><path d="M25.7,37.8c1.1,0,1.1-1.7,0-1.7C24.6,36.1,24.6,37.8,25.7,37.8z M25.4,36.3c0.4,0,0.4,0.6,0,0.6    C25,36.9,25,36.3,25.4,36.3z"/><path d="M25.7,32.5c-1.1,0-1.1,1.7,0,1.7C26.9,34.2,26.9,32.5,25.7,32.5z M25.4,33.4c-0.4,0-0.4-0.6,0-0.6    C25.8,32.7,25.8,33.4,25.4,33.4z"/><path d="M27.2,30.3c0-1.1-1.7-1.1-1.7,0C25.5,31.4,27.2,31.4,27.2,30.3z M26,30.3c-0.4,0-0.4-0.6,0-0.6    C26.4,29.6,26.4,30.3,26,30.3z"/><path d="M27.5,30.3c0,1.1,1.7,1.1,1.7,0C29.3,29.1,27.5,29.1,27.5,30.3z M28.1,30.3c-0.4,0-0.4-0.6,0-0.6    C28.5,29.6,28.5,30.3,28.1,30.3z"/><path d="M30,32.1c0-1.1-1.7-1.1-1.7,0C28.3,33.3,30,33.3,30,32.1z M28.8,32.1c-0.4,0-0.4-0.6,0-0.6C29.2,31.5,29.2,32.1,28.8,32.1    z"/><path d="M26.1,27.2c-1.1,0-1.1,1.7,0,1.7C27.3,29,27.3,27.2,26.1,27.2z M25.8,28.1c-0.4,0-0.4-0.6,0-0.6    C26.2,27.5,26.2,28.1,25.8,28.1z"/><path d="M22.1,34c-1.1,0-1.1,1.7,0,1.7C23.2,35.7,23.2,34,22.1,34z M21.8,34.8c-0.4,0-0.4-0.6,0-0.6    C22.2,34.2,22.2,34.8,21.8,34.8z"/><path d="M24.9,26.2c0,1.1,1.7,1.1,1.7,0C26.6,25.1,24.9,25.1,24.9,26.2z M25.4,26.2c-0.4,0-0.4-0.6,0-0.6    C25.8,25.6,25.8,26.2,25.4,26.2z"/><path d="M24.8,24.7c1.1,0,1.1-1.7,0-1.7C23.6,22.9,23.6,24.7,24.8,24.7z M24.5,23.2c0.4,0,0.4,0.6,0,0.6    C24.1,23.8,24.1,23.2,24.5,23.2z"/><path d="M26,22.1c1.1,0,1.1-1.7,0-1.7C24.8,20.4,24.8,22.1,26,22.1z M25.7,20.6c0.4,0,0.4,0.6,0,0.6    C25.3,21.3,25.3,20.6,25.7,20.6z"/><path d="M28.7,24c0,1.1,1.7,1.1,1.7,0C30.4,22.9,28.7,22.9,28.7,24z M29.2,24c-0.4,0-0.4-0.6,0-0.6C29.6,23.4,29.6,24,29.2,24z"/><path d="M30.3,39.3c-1.1,0-1.1,1.7,0,1.7C31.5,41,31.5,39.3,30.3,39.3z M30,40.1c-0.4,0-0.4-0.6,0-0.6    C30.4,39.5,30.4,40.1,30,40.1z"/><path d="M23.7,48.4c-1.1,0-1.1,1.7,0,1.7C24.8,50.2,24.8,48.4,23.7,48.4z M23.3,49.3c-0.4,0-0.4-0.6,0-0.6    C23.8,48.7,23.7,49.3,23.3,49.3z"/><path d="M21.8,45.7c-1.1,0-1.1,1.7,0,1.7C22.9,47.4,22.9,45.7,21.8,45.7z M21.5,46.5c-0.4,0-0.4-0.6,0-0.6    C21.9,45.9,21.9,46.5,21.5,46.5z"/><path d="M30,49.4c-1.1,0-1.1,1.7,0,1.7C31.2,51.2,31.2,49.4,30,49.4z M29.7,50.3c-0.4,0-0.4-0.6,0-0.6    C30.1,49.7,30.1,50.3,29.7,50.3z"/><path d="M30.5,36.5c-1.1,0-1.1,1.7,0,1.7C31.7,38.3,31.7,36.5,30.5,36.5z M30.2,37.4c-0.4,0-0.4-0.6,0-0.6    C30.6,36.8,30.6,37.4,30.2,37.4z"/><path d="M30.5,33c-1.1,0-1.1,1.7,0,1.7C31.7,34.7,31.7,33,30.5,33z M30.2,33.8c-0.4,0-0.4-0.6,0-0.6    C30.6,33.2,30.6,33.8,30.2,33.8z"/><path d="M32.5,32.1c-1.1,0-1.1,1.7,0,1.7C33.7,33.9,33.7,32.1,32.5,32.1z M32.2,33c-0.4,0-0.4-0.6,0-0.6    C32.6,32.4,32.6,33,32.2,33z"/><path d="M30.5,29.4c-1.1,0-1.1,1.7,0,1.7C31.7,31.1,31.7,29.4,30.5,29.4z M30.2,30.2c-0.4,0-0.4-0.6,0-0.6    C30.6,29.6,30.6,30.2,30.2,30.2z"/><path d="M31.8,28.7c0,1.1,1.7,1.1,1.7,0C33.6,27.5,31.9,27.5,31.8,28.7z M32.4,28c0.4,0,0.4,0.6,0,0.6C32,28.7,32,28,32.4,28z"/><path d="M32.2,30.8c0,1.1,1.7,1.1,1.7,0C33.9,29.7,32.2,29.7,32.2,30.8z M32.8,30.8c-0.4,0-0.4-0.6,0-0.6    C33.2,30.2,33.2,30.8,32.8,30.8z"/><path d="M32.4,45.4c-1.1,0-1.1,1.7,0,1.7C33.6,47.2,33.6,45.4,32.4,45.4z M32.1,46.3c-0.4,0-0.4-0.6,0-0.6    C32.5,45.7,32.5,46.3,32.1,46.3z"/><path d="M32.4,41.8c-1.1,0-1.1,1.7,0,1.7C33.6,43.6,33.6,41.8,32.4,41.8z M32.1,42.7c-0.4,0-0.4-0.6,0-0.6    C32.5,42.1,32.5,42.7,32.1,42.7z"/><path d="M32.4,38.3c-1.1,0-1.1,1.7,0,1.7C33.6,40,33.6,38.3,32.4,38.3z M32.1,39.1c-0.4,0-0.4-0.6,0-0.6    C32.5,38.5,32.5,39.1,32.1,39.1z"/><path d="M32.4,34.7c-1.1,0-1.1,1.7,0,1.7C33.6,36.4,33.6,34.7,32.4,34.7z M32.1,35.6c-0.4,0-0.4-0.6,0-0.6    C32.5,34.9,32.5,35.6,32.1,35.6z"/><path d="M34.4,43.4c-1.1,0-1.1,1.7,0,1.7C35.6,45.1,35.6,43.4,34.4,43.4z M34.1,44.3c-0.4,0-0.4-0.6,0-0.6    C34.5,43.6,34.5,44.3,34.1,44.3z"/><path d="M34.4,39.8c-1.1,0-1.1,1.7,0,1.7C35.6,41.6,35.6,39.8,34.4,39.8z M34.1,40.7c-0.4,0-0.4-0.6,0-0.6    C34.5,40.1,34.5,40.7,34.1,40.7z"/><path d="M34.4,36.2c-1.1,0-1.1,1.7,0,1.7C35.6,38,35.6,36.3,34.4,36.2z M34.1,37.1c-0.4,0-0.4-0.6,0-0.6    C34.5,36.5,34.5,37.1,34.1,37.1z"/><path d="M33.6,33.5c0,1.1,1.7,1.1,1.7,0C35.3,32.4,33.6,32.4,33.6,33.5z M34.1,32.9c0.4,0,0.4,0.6,0,0.6    C33.7,33.5,33.7,32.9,34.1,32.9z"/><path d="M27.8,33c-1.1,0-1.1,1.7,0,1.7C28.9,34.7,28.9,33,27.8,33z M27.5,33.8c-0.4,0-0.4-0.6,0-0.6    C27.9,33.2,27.9,33.8,27.5,33.8z"/><path d="M28.1,27.3c-1.1,0-1.1,1.7,0,1.7C29.2,29,29.2,27.3,28.1,27.3z M27.8,28.2c-0.4,0-0.4-0.6,0-0.6    C28.2,27.5,28.2,28.2,27.8,28.2z"/><path d="M30.3,27.4c-1.1,0-1.1,1.7,0,1.7C31.4,29.2,31.4,27.4,30.3,27.4z M30,28.3c-0.4,0-0.4-0.6,0-0.6    C30.4,27.7,30.4,28.3,30,28.3z"/><path d="M27.8,24.9c-1.1,0-1.1,1.7,0,1.7C28.9,26.6,28.9,24.9,27.8,24.9z M27.5,25.8c-0.4,0-0.4-0.6,0-0.6    C27.9,25.1,27.9,25.8,27.5,25.8z"/><path d="M30.6,25.3c-1.1,0-1.1,1.7,0,1.7C31.8,27.1,31.8,25.3,30.6,25.3z M30.3,26.2c-0.4,0-0.4-0.6,0-0.6    C30.7,25.6,30.7,26.2,30.3,26.2z"/><path d="M27.1,22.4c-1.1,0-1.1,1.7,0,1.7C28.2,24.2,28.2,22.5,27.1,22.4z M26.8,23.3c-0.4,0-0.4-0.6,0-0.6    C27.2,22.7,27.2,23.3,26.8,23.3z"/><path d="M27.8,22.1c0,1.1,1.7,1.1,1.7,0C29.6,21,27.8,21,27.8,22.1z M28.4,22.1c-0.4,0-0.4-0.6,0-0.6    C28.8,21.5,28.8,22.1,28.4,22.1z"/><path d="M27.3,20.3c0,1.1,1.7,1.1,1.7,0C29,19.1,27.3,19.1,27.3,20.3z M27.8,19.7c0.4,0,0.4,0.6,0,0.6    C27.4,20.3,27.4,19.6,27.8,19.7z"/><path d="M27.2,18.8c1.1,0,1.1-1.7,0-1.7C26.1,17.1,26.1,18.8,27.2,18.8z M26.9,17.3c0.4,0,0.4,0.6,0,0.6    C26.5,17.9,26.5,17.3,26.9,17.3z"/></g></g></svg>